<svg width="32" height="32" viewBox="0 0 32 32" fill="none" xmlns="http://www.w3.org/2000/svg">
<path d="M6.50879 12.576C8.17779 11.667 10.1978 11.074 12.6598 10.886H12.7608C14.3828 10.916 16.1308 11.685 18.0698 13.228V10.252V3.11602V2.64602C18.0698 1.60902 17.2948 0.749018 16.2708 0.639018C12.1568 0.231018 8.22279 1.09102 5.96679 2.92702C4.62379 4.01902 3.85679 5.44402 3.67879 7.15202C3.59679 9.27402 4.96979 11.214 6.50879 12.576Z" fill="black"/>
<path d="M21.8489 12.662C23.1439 13.169 24.2859 13.8 25.3199 14.5C25.4609 14.406 25.6429 14.368 25.7769 14.266C27.3269 13.096 28.1729 11.484 28.3129 9.491C28.2699 6.175 24.8359 3.443 21.8949 2.11C21.7299 2.037 21.5569 2 21.3889 2C21.1689 2 20.9529 2.061 20.7609 2.183C20.4409 2.39 20.2549 2.732 20.2549 3.116V10.252C20.2539 11.326 20.8949 12.29 21.8489 12.662Z" fill="black"/>
<path d="M8.97397 27.05C9.05097 27.009 9.17297 26.896 9.18097 26.696L9.18797 19.463V19.109C9.18797 17.993 8.64497 16.932 7.73897 16.273L6.06497 15.059C5.13797 14.394 4.33297 13.644 3.66797 12.839V14.815V19.017H3.68597L3.67397 20.127C3.61897 23.781 7.06797 26.184 8.55297 27.05C8.73897 27.154 8.89697 27.105 8.97397 27.05Z" fill="black"/>
<path d="M28.3332 14.882C27.9642 15.291 27.5522 15.669 27.0982 16.01C23.2132 18.95 17.1382 18.986 13.1002 18.12C12.9932 18.096 12.8872 18.09 12.7832 18.09C12.4512 18.09 12.1332 18.2 11.8742 18.407C11.5512 18.669 11.3712 19.041 11.3712 19.462L11.3682 31.46C12.9722 30.301 14.5552 29.27 16.4702 29.368C20.5842 29.63 24.2682 28.648 26.3362 26.776C27.5992 25.629 28.2692 24.141 28.3342 22.36V14.882H28.3332Z" fill="black"/>
</svg>
